<svg xmlns="http://www.w3.org/2000/svg" viewBox="0 0 550 86.07"><defs><style>.cls-1{fill:#0048e9;}.cls-2{fill:#3fa9f5;}.cls-3{fill:#29abe2;}</style></defs><title>Asset 5</title><g id="Layer_2" data-name="Layer 2"><g id="Layer_1-2" data-name="Layer 1"><path class="cls-1" d="M118,86.07H99V.32h19V86.07Z"/><path class="cls-2" d="M118,43.19h13.19a12.45,12.45,0,0,0,10.51-5.44L166,0H152.8a12.36,12.36,0,0,0-10.43,5.4Z"/><path class="cls-1" d="M118,43.19h13.19a12.49,12.49,0,0,1,10.51,5.4L166,86H152.8a12.39,12.39,0,0,1-10.43-5.35Z"/><path class="cls-3" d="M214,86.07h0c-9.64,0-17.46-9.15-17.46-20.44V16.14h0c9.64,0,17.46,9.15,17.46,20.44V86.07Z"/><path class="cls-1" d="M172,16.14V0h66.54a16.25,16.25,0,0,1-16.36,16.14H172Z"/><path class="cls-1" d="M290.44,18.14a7.06,7.06,0,0,1-1.69,2.07,3.61,3.61,0,0,1-2.29.69,5.38,5.38,0,0,1-2.66-.83c-.95-.56-2-1.18-3.23-1.87a25.08,25.08,0,0,0-4.12-1.87,15.38,15.38,0,0,0-5.27-.84q-5.12,0-7.62,2.33a8.21,8.21,0,0,0-2.5,6.31,6,6,0,0,0,1.51,4.2,12.88,12.88,0,0,0,3.95,2.87,40.33,40.33,0,0,0,5.6,2.22q3.15,1,6.43,2.25a55.09,55.09,0,0,1,6.43,2.9,21.57,21.57,0,0,1,5.6,4.26,20,20,0,0,1,3.95,6.31,23.63,23.63,0,0,1,1.51,9A31,31,0,0,1,294.16,69a25.78,25.78,0,0,1-5.46,8.84,25.29,25.29,0,0,1-8.83,5.93A31.08,31.08,0,0,1,268,85.89a35.6,35.6,0,0,1-7.45-.81,42.27,42.27,0,0,1-7.35-2.27,41,41,0,0,1-6.67-3.49A28.18,28.18,0,0,1,241,74.83l5.38-9.09a4.63,4.63,0,0,1,4-2.3,5.82,5.82,0,0,1,3.25,1.09c1.1.73,2.33,1.54,3.72,2.42a29.34,29.34,0,0,0,4.76,2.42,16.78,16.78,0,0,0,6.35,1.09q5,0,7.69-2.33t2.75-7.4A7.31,7.31,0,0,0,277.42,56a11.57,11.57,0,0,0-3.95-3.05,34.46,34.46,0,0,0-5.57-2.13c-2.09-.62-4.22-1.3-6.41-2.05a45.58,45.58,0,0,1-6.4-2.76,19.82,19.82,0,0,1-9.53-11,28.24,28.24,0,0,1-1.5-9.87,25,25,0,0,1,1.77-9.21,23.91,23.91,0,0,1,5.22-8,25.48,25.48,0,0,1,8.45-5.61A29.42,29.42,0,0,1,271,.18a40.58,40.58,0,0,1,7,.6,35.31,35.31,0,0,1,6.48,1.79,34.68,34.68,0,0,1,5.73,2.82A26.42,26.42,0,0,1,295,9.1Z"/><path class="cls-1" d="M352.94,18.14a7.06,7.06,0,0,1-1.69,2.07,3.61,3.61,0,0,1-2.29.69,5.38,5.38,0,0,1-2.66-.83c-.95-.56-2-1.18-3.23-1.87A25.08,25.08,0,0,0,339,16.33a15.38,15.38,0,0,0-5.27-.84q-5.12,0-7.62,2.33a8.21,8.21,0,0,0-2.5,6.31,6,6,0,0,0,1.51,4.2A12.88,12.88,0,0,0,329,31.2a40.33,40.33,0,0,0,5.6,2.22q3.15,1,6.43,2.25a55.09,55.09,0,0,1,6.43,2.9,21.57,21.57,0,0,1,5.6,4.26A20,20,0,0,1,357,49.14a23.63,23.63,0,0,1,1.51,9A31,31,0,0,1,356.66,69a25.78,25.78,0,0,1-5.46,8.84,25.29,25.29,0,0,1-8.83,5.93,31.08,31.08,0,0,1-11.92,2.16,35.6,35.6,0,0,1-7.45-.81,42.27,42.27,0,0,1-7.35-2.27A41,41,0,0,1,309,79.32a28.18,28.18,0,0,1-5.44-4.49l5.38-9.09a4.63,4.63,0,0,1,4-2.3,5.82,5.82,0,0,1,3.25,1.09c1.1.73,2.33,1.54,3.72,2.42a29.34,29.34,0,0,0,4.76,2.42A16.78,16.78,0,0,0,331,70.46q5,0,7.69-2.33t2.75-7.4A7.31,7.31,0,0,0,339.92,56,11.57,11.57,0,0,0,336,52.91a34.46,34.46,0,0,0-5.57-2.13c-2.09-.62-4.22-1.3-6.41-2.05a45.58,45.58,0,0,1-6.4-2.76,19.82,19.82,0,0,1-9.53-11,28.24,28.24,0,0,1-1.5-9.87,25,25,0,0,1,1.77-9.21,23.91,23.91,0,0,1,5.22-8A25.48,25.48,0,0,1,322,2.28,29.42,29.42,0,0,1,333.46.18a40.58,40.58,0,0,1,7,.6A35.31,35.31,0,0,1,347,2.57a34.68,34.68,0,0,1,5.73,2.82,26.42,26.42,0,0,1,4.77,3.71Z"/><path class="cls-1" d="M481.08,85.73h-19V0h0c10.5,0,19,8.88,19,19.83v65.9Z"/><path class="cls-1" d="M462.08.07h13.19c4.33,0,8.34,3.17,10.51,8.33l24.3,57.83H496.84c-4.3,0-8.28-3.15-10.43-8.27Z"/><path class="cls-2" d="M550,86.07H531V20.17c0-11,8.51-19.84,19-19.84h0V86.07Z"/><path class="cls-2" d="M47,27.33H59.11a11.31,11.31,0,0,1,9.65,5.23L90.08,85H77.92a11.2,11.2,0,0,1-9.57-5.19Z"/><path class="cls-1" d="M0,86.07H13a12.25,12.25,0,0,0,10.37-5.43L58.08,0H45A12.14,12.14,0,0,0,34.74,5.38Z"/><path class="cls-2" d="M411.5,27.33h12.11a11.31,11.31,0,0,1,9.65,5.23L454.58,85H442.42a11.2,11.2,0,0,1-9.57-5.19Z"/><path class="cls-1" d="M364.5,86.07h13a12.25,12.25,0,0,0,10.37-5.43L422.58,0H409.52a12.14,12.14,0,0,0-10.28,5.38Z"/></g></g></svg>